# xmcd
#
# Track frame offsets:
#	150
#	4929
#	22256
#	38451
#	52642
#	69804
#	86164
#	99615
#	117944
#	134708
#	151535
#
# Disc length: 2193 seconds
#
# Revision: 1
# Processed by: cddbd v1.5.2PL0 Copyright (c) Steve Scherf et al.
# Submitted via: audiograbber 1.83.01
#
DISCID=80088f0b
DTITLE=Tantara - Rythme and Blues 1 2000
DYEAR=1900
DGENRE=Country
TTITLE0=Special Message From The President Of Tantara
TTITLE1=E. G. Knight - Somwhere In Atlanta
TTITLE2=Tom Horner - My Blues Down
TTITLE3=Lady "a" Blues Band - Don´t Blame Me
TTITLE4=E. G. Night - Evil
TTITLE5=Tom Horner - Just A Snap Of Your Finger
TTITLE6=Connie Emerson - Simple As That
TTITLE7=Sonya Chism - Wizard Of Love
TTITLE8=Landis Batts - Within
TTITLE9=Wilson Meadows - When You´re Gettin´ My Love
TTITLE10=Landis Batts - Evryboddy Needs Help
EXTD=
EXTT0=
EXTT1=
EXTT2=
EXTT3=
EXTT4=
EXTT5=
EXTT6=
EXTT7=
EXTT8=
EXTT9=
EXTT10=
PLAYORDER=
